<?xml version="1.0" encoding="UTF-8" standalone="no"?>
<!DOCTYPE svg PUBLIC "-//W3C//DTD SVG 1.1//EN" "http://www.w3.org/Graphics/SVG/1.1/DTD/svg11.dtd">
<svg xmlns="http://www.w3.org/2000/svg" version="1.1" viewBox="0.00 0.00 256.00 256.00">
<g stroke-width="2.00" fill="none" stroke-linecap="butt">
<path stroke="#f2384d" vector-effect="non-scaling-stroke" d="
  M 126.37 14.72
  L 126.23 48.66"
/>
<path stroke="#ff555e" vector-effect="non-scaling-stroke" d="
  M 112.34 56.71
  L 112.13 22.96"
/>
<path stroke="#ed1b37" vector-effect="non-scaling-stroke" d="
  M 163.76 36.30
  Q 163.39 36.89 162.84 36.28
  A 0.48 0.48 0.0 0 0 162.01 36.54
  Q 161.78 38.13 160.44 39.04
  Q 160.00 39.34 159.78 39.82
  Q 158.32 42.98 156.31 45.79
  C 154.71 48.05 153.59 50.27 152.18 52.52
  Q 150.66 54.97 148.68 61.45"
/>
<path stroke="#fa3749" vector-effect="non-scaling-stroke" d="
  M 94.87 66.94
  Q 93.63 65.77 93.58 63.00
  Q 93.28 47.64 94.07 33.39"
/>
<path stroke="#fa3749" vector-effect="non-scaling-stroke" d="
  M 189.10 50.96
  C 188.24 53.45 186.39 55.87 185.51 57.47
  C 180.25 66.95 174.73 76.21 169.27 85.57
  C 167.46 88.66 166.01 92.31 164.22 95.64
  Q 163.13 97.68 163.01 99.87
  Q 162.78 103.94 162.50 108.08"
/>
<path stroke="#ed1b37" vector-effect="non-scaling-stroke" d="
  M 90.50 110.01
  Q 89.85 110.31 89.29 109.96
  Q 67.54 96.32 45.94 82.46
  Q 45.24 82.01 45.07 81.53
  Q 44.81 80.81 45.41 80.30
  Q 45.82 79.95 45.84 79.40
  L 46.26 61.03"
/>
<path stroke="#f22f45" vector-effect="non-scaling-stroke" d="
  M 224.48 71.54
  L 164.19 109.71"
/>
<path stroke="#fa3749" vector-effect="non-scaling-stroke" d="
  M 164.19 109.71
  Q 163.39 109.96 162.39 109.71"
/>
<path stroke="#ed1b37" vector-effect="non-scaling-stroke" d="
  M 122.70 176.03
  Q 122.43 176.59 122.50 177.48
  Q 122.52 177.69 122.38 177.44
  Q 122.31 177.32 122.18 177.28
  Q 122.01 177.21 122.00 177.02
  Q 121.94 175.72 121.87 177.63
  Q 121.91 177.46 121.88 177.30
  Q 121.82 177.03 121.57 176.92
  Q 118.70 175.62 116.00 174.00
  Q 110.67 170.80 105.34 167.61
  Q 98.82 163.71 92.24 159.92
  Q 89.68 158.44 86.95 157.25
  Q 85.75 156.73 84.07 155.49
  C 82.45 154.29 80.17 153.97 78.94 152.25
  Q 78.67 151.88 78.21 151.88
  L 77.75 151.88
  Q 77.44 151.88 77.28 151.61
  Q 76.73 150.67 75.77 150.88
  Q 75.28 151.00 75.12 150.52
  Q 74.89 149.84 74.16 149.86
  Q 73.68 149.88 73.32 149.56
  L 71.60 148.07
  Q 71.36 147.87 71.05 147.88
  Q 70.91 147.88 70.76 147.88
  Q 70.28 147.90 70.10 147.45
  Q 69.81 146.76 69.02 146.88
  A 0.77 0.77 0.0 0 1 68.25 146.53
  Q 67.74 145.73 66.77 145.88
  Q 66.36 145.94 66.14 145.58
  Q 65.29 144.19 63.79 143.82
  Q 63.29 143.70 63.00 143.27
  Q 62.72 142.84 62.18 142.87
  Q 61.70 142.89 61.33 142.57
  L 59.60 141.07
  Q 59.36 140.87 59.05 140.88
  Q 58.90 140.88 58.75 140.88
  Q 58.32 140.90 58.15 140.51
  Q 57.87 139.87 57.25 139.86
  Q 56.88 139.86 56.55 139.66
  C 55.02 138.72 53.32 138.01 51.80 137.08
  Q 51.36 136.80 50.75 136.88
  Q 50.27 136.94 50.11 136.49
  Q 49.88 135.85 49.19 135.86
  Q 48.72 135.87 48.37 135.55
  Q 46.24 133.65 43.55 132.59
  Q 43.14 132.44 42.88 132.08
  Q 41.82 130.60 40.01 130.07
  Q 39.67 129.97 39.62 129.61
  Q 39.59 129.40 39.48 129.22
  Q 39.34 128.98 38.95 128.85
  Q 35.06 127.56 31.87 124.99
  Q 31.45 124.66 30.93 124.63
  Q 30.28 124.58 29.79 124.07
  Q 29.45 123.71 29.02 123.96
  Q 28.28 124.39 28.33 126.04"
/>
<path stroke="#ed1b37" vector-effect="non-scaling-stroke" d="
  M 224.49 114.59
  Q 223.60 112.83 223.64 110.69
  Q 223.65 110.27 223.28 110.47
  Q 222.61 110.83 221.83 110.36
  Q 221.43 110.11 220.96 110.11
  Q 196.23 110.13 171.50 110.15
  Q 168.23 110.16 165.02 110.95
  Q 164.60 111.05 164.42 110.66
  Q 164.23 110.23 164.19 109.71"
/>
<path stroke="#fa3749" vector-effect="non-scaling-stroke" d="
  M 224.53 155.79
  Q 224.35 155.82 224.21 155.63
  Q 224.08 155.47 223.87 155.49
  Q 223.43 155.53 223.37 155.72
  Q 223.23 156.23 222.71 156.14
  Q 216.56 154.98 210.34 155.64
  Q 210.25 155.65 210.18 155.62
  Q 210.07 155.56 209.98 155.47
  Q 209.88 155.37 209.73 155.37
  L 130.32 155.46"
/>
<path stroke="#fa4151" vector-effect="non-scaling-stroke" d="
  M 86.80 179.99
  Q 81.55 175.42 75.25 172.11
  Q 71.56 170.16 69.24 168.71
  Q 65.87 166.61 63.25 165.25
  Q 58.58 162.82 55.30 160.66
  C 54.21 159.94 52.83 159.90 51.87 158.64
  A 1.87 1.83 -7.0 0 0 51.11 158.06
  Q 47.04 156.43 45.14 155.01
  Q 43.45 153.75 41.98 153.04
  C 38.68 151.44 35.83 149.59 32.63 148.03
  Q 32.20 147.82 31.96 147.42
  Q 30.28 144.70 28.37 146.11"
/>
<path stroke="#ff555e" vector-effect="non-scaling-stroke" d="
  M 224.50 175.60
  Q 223.48 176.00 222.76 176.73
  Q 222.43 177.06 222.00 176.89
  C 219.26 175.75 215.42 176.53 212.00 176.51
  Q 198.00 176.43 184.00 176.27
  Q 176.63 176.18 169.25 176.42
  Q 166.34 176.52 164.73 177.01
  Q 164.43 177.10 164.16 176.94
  Q 163.98 176.84 163.75 176.88
  Q 163.33 176.97 163.37 177.51"
/>
</g>
<path fill="#ff5e66" d="
  M 126.37 14.72
  L 126.23 48.66
  L 112.34 56.71
  L 112.13 22.96
  L 126.37 14.72
  Z"
/>
<path fill="#e51233" d="
  M 126.37 14.72
  L 163.76 36.30
  Q 163.39 36.89 162.84 36.28
  A 0.48 0.48 0.0 0 0 162.01 36.54
  Q 161.78 38.13 160.44 39.04
  Q 160.00 39.34 159.78 39.82
  Q 158.32 42.98 156.31 45.79
  C 154.71 48.05 153.59 50.27 152.18 52.52
  Q 150.66 54.97 148.68 61.45
  L 126.23 48.66
  L 126.37 14.72
  Z"
/>
<path fill="#ff4b56" d="
  M 112.13 22.96
  L 112.34 56.71
  L 94.87 66.94
  Q 93.63 65.77 93.58 63.00
  Q 93.28 47.64 94.07 33.39
  L 112.13 22.96
  Z"
/>
<path fill="#f4233b" d="
  M 94.07 33.39
  Q 93.28 47.64 93.58 63.00
  Q 93.63 65.77 94.87 66.94
  L 91.19 68.97
  A 1.30 1.29 75.4 0 0 90.53 70.10
  L 90.50 110.01
  Q 89.85 110.31 89.29 109.96
  Q 67.54 96.32 45.94 82.46
  Q 45.24 82.01 45.07 81.53
  Q 44.81 80.81 45.41 80.30
  Q 45.82 79.95 45.84 79.40
  L 46.26 61.03
  L 94.07 33.39
  Z"
/>
<path fill="#f4233b" d="
  M 163.76 36.30
  L 189.10 50.96
  C 188.24 53.45 186.39 55.87 185.51 57.47
  C 180.25 66.95 174.73 76.21 169.27 85.57
  C 167.46 88.66 166.01 92.31 164.22 95.64
  Q 163.13 97.68 163.01 99.87
  Q 162.78 103.94 162.50 108.08
  L 162.43 70.84
  A 2.68 2.66 -75.5 0 0 161.08 68.53
  L 148.68 61.45
  Q 150.66 54.97 152.18 52.52
  C 153.59 50.27 154.71 48.05 156.31 45.79
  Q 158.32 42.98 159.78 39.82
  Q 160.00 39.34 160.44 39.04
  Q 161.78 38.13 162.01 36.54
  A 0.48 0.48 0.0 0 1 162.84 36.28
  Q 163.39 36.89 163.76 36.30
  Z"
/>
<path fill="#ff4b56" d="
  M 189.10 50.96
  L 224.48 71.54
  L 164.19 109.71
  Q 163.39 109.96 162.39 109.71
  L 162.50 108.08
  Q 162.78 103.94 163.01 99.87
  Q 163.13 97.68 164.22 95.64
  C 166.01 92.31 167.46 88.66 169.27 85.57
  C 174.73 76.21 180.25 66.95 185.51 57.47
  C 186.39 55.87 188.24 53.45 189.10 50.96
  Z"
/>
<path fill="#e51233" d="
  M 46.26 61.03
  L 45.84 79.40
  Q 45.82 79.95 45.41 80.30
  Q 44.81 80.81 45.07 81.53
  Q 45.24 82.01 45.94 82.46
  Q 67.54 96.32 89.29 109.96
  Q 89.85 110.31 90.50 110.01
  Q 90.66 110.74 91.17 111.04
  Q 106.57 119.95 121.71 128.67
  A 2.04 2.03 15.1 0 1 122.73 130.43
  L 122.70 176.03
  Q 122.43 176.59 122.50 177.48
  Q 122.52 177.69 122.38 177.44
  Q 122.31 177.32 122.18 177.28
  Q 122.01 177.21 122.00 177.02
  Q 121.94 175.72 121.87 177.63
  Q 121.91 177.46 121.88 177.30
  Q 121.82 177.03 121.57 176.92
  Q 118.70 175.62 116.00 174.00
  Q 110.67 170.80 105.34 167.61
  Q 98.82 163.71 92.24 159.92
  Q 89.68 158.44 86.95 157.25
  Q 85.75 156.73 84.07 155.49
  C 82.45 154.29 80.17 153.97 78.94 152.25
  Q 78.67 151.88 78.21 151.88
  L 77.75 151.88
  Q 77.44 151.88 77.28 151.61
  Q 76.73 150.67 75.77 150.88
  Q 75.28 151.00 75.12 150.52
  Q 74.89 149.84 74.16 149.86
  Q 73.68 149.88 73.32 149.56
  L 71.60 148.07
  Q 71.36 147.87 71.05 147.88
  Q 70.91 147.88 70.76 147.88
  Q 70.28 147.90 70.10 147.45
  Q 69.81 146.76 69.02 146.88
  A 0.77 0.77 0.0 0 1 68.25 146.53
  Q 67.74 145.73 66.77 145.88
  Q 66.36 145.94 66.14 145.58
  Q 65.29 144.19 63.79 143.82
  Q 63.29 143.70 63.00 143.27
  Q 62.72 142.84 62.18 142.87
  Q 61.70 142.89 61.33 142.57
  L 59.60 141.07
  Q 59.36 140.87 59.05 140.88
  Q 58.90 140.88 58.75 140.88
  Q 58.32 140.90 58.15 140.51
  Q 57.87 139.87 57.25 139.86
  Q 56.88 139.86 56.55 139.66
  C 55.02 138.72 53.32 138.01 51.80 137.08
  Q 51.36 136.80 50.75 136.88
  Q 50.27 136.94 50.11 136.49
  Q 49.88 135.85 49.19 135.86
  Q 48.72 135.87 48.37 135.55
  Q 46.24 133.65 43.55 132.59
  Q 43.14 132.44 42.88 132.08
  Q 41.82 130.60 40.01 130.07
  Q 39.67 129.97 39.62 129.61
  Q 39.59 129.40 39.48 129.22
  Q 39.34 128.98 38.95 128.85
  Q 35.06 127.56 31.87 124.99
  Q 31.45 124.66 30.93 124.63
  Q 30.28 124.58 29.79 124.07
  Q 29.45 123.71 29.02 123.96
  Q 28.28 124.39 28.33 126.04
  L 28.38 72.51
  A 2.04 2.03 -15.1 0 1 29.40 70.75
  L 46.26 61.03
  Z"
/>
<path fill="#e51233" d="
  M 224.48 71.54
  L 224.49 114.59
  Q 223.60 112.83 223.64 110.69
  Q 223.65 110.27 223.28 110.47
  Q 222.61 110.83 221.83 110.36
  Q 221.43 110.11 220.96 110.11
  Q 196.23 110.13 171.50 110.15
  Q 168.23 110.16 165.02 110.95
  Q 164.60 111.05 164.42 110.66
  Q 164.23 110.23 164.19 109.71
  L 224.48 71.54
  Z"
/>
<path fill="#f4233b" d="
  M 162.39 109.71
  Q 163.39 109.96 164.19 109.71
  Q 164.23 110.23 164.42 110.66
  Q 164.60 111.05 165.02 110.95
  Q 168.23 110.16 171.50 110.15
  Q 196.23 110.13 220.96 110.11
  Q 221.43 110.11 221.83 110.36
  Q 222.61 110.83 223.28 110.47
  Q 223.65 110.27 223.64 110.69
  Q 223.60 112.83 224.49 114.59
  L 224.53 155.79
  Q 224.35 155.82 224.21 155.63
  Q 224.08 155.47 223.87 155.49
  Q 223.43 155.53 223.37 155.72
  Q 223.23 156.23 222.71 156.14
  Q 216.56 154.98 210.34 155.64
  Q 210.25 155.65 210.18 155.62
  Q 210.07 155.56 209.98 155.47
  Q 209.88 155.37 209.73 155.37
  L 130.32 155.46
  L 130.25 129.80
  A 1.06 1.04 75.3 0 1 130.77 128.89
  Q 146.20 119.97 161.73 110.99
  Q 162.42 110.60 162.39 109.71
  Z"
/>
<path fill="#f4233b" d="
  M 122.70 176.03
  L 122.76 205.76
  Q 122.76 207.03 121.86 206.13
  L 92.04 176.17
  A 0.99 0.98 -44.8 0 0 90.65 176.17
  L 86.80 179.99
  Q 81.55 175.42 75.25 172.11
  Q 71.56 170.16 69.24 168.71
  Q 65.87 166.61 63.25 165.25
  Q 58.58 162.82 55.30 160.66
  C 54.21 159.94 52.83 159.90 51.87 158.64
  A 1.87 1.83 -7.0 0 0 51.11 158.06
  Q 47.04 156.43 45.14 155.01
  Q 43.45 153.75 41.98 153.04
  C 38.68 151.44 35.83 149.59 32.63 148.03
  Q 32.20 147.82 31.96 147.42
  Q 30.28 144.70 28.37 146.11
  L 28.33 126.04
  Q 28.28 124.39 29.02 123.96
  Q 29.45 123.71 29.79 124.07
  Q 30.28 124.58 30.93 124.63
  Q 31.45 124.66 31.87 124.99
  Q 35.06 127.56 38.95 128.85
  Q 39.34 128.98 39.48 129.22
  Q 39.59 129.40 39.62 129.61
  Q 39.67 129.97 40.01 130.07
  Q 41.82 130.60 42.88 132.08
  Q 43.14 132.44 43.55 132.59
  Q 46.24 133.65 48.37 135.55
  Q 48.72 135.87 49.19 135.86
  Q 49.88 135.85 50.11 136.49
  Q 50.27 136.94 50.75 136.88
  Q 51.36 136.80 51.80 137.08
  C 53.32 138.01 55.02 138.72 56.55 139.66
  Q 56.88 139.86 57.25 139.86
  Q 57.87 139.87 58.15 140.51
  Q 58.32 140.90 58.75 140.88
  Q 58.90 140.88 59.05 140.88
  Q 59.36 140.87 59.60 141.07
  L 61.33 142.57
  Q 61.70 142.89 62.18 142.87
  Q 62.72 142.84 63.00 143.27
  Q 63.29 143.70 63.79 143.82
  Q 65.29 144.19 66.14 145.58
  Q 66.36 145.94 66.77 145.88
  Q 67.74 145.73 68.25 146.53
  A 0.77 0.77 0.0 0 0 69.02 146.88
  Q 69.81 146.76 70.10 147.45
  Q 70.28 147.90 70.76 147.88
  Q 70.91 147.88 71.05 147.88
  Q 71.36 147.87 71.60 148.07
  L 73.32 149.56
  Q 73.68 149.88 74.16 149.86
  Q 74.89 149.84 75.12 150.52
  Q 75.28 151.00 75.77 150.88
  Q 76.73 150.67 77.28 151.61
  Q 77.44 151.88 77.75 151.88
  L 78.21 151.88
  Q 78.67 151.88 78.94 152.25
  C 80.17 153.97 82.45 154.29 84.07 155.49
  Q 85.75 156.73 86.95 157.25
  Q 89.68 158.44 92.24 159.92
  Q 98.82 163.71 105.34 167.61
  Q 110.67 170.80 116.00 174.00
  Q 118.70 175.62 121.57 176.92
  Q 121.82 177.03 121.88 177.30
  Q 121.91 177.46 121.87 177.63
  Q 121.94 175.72 122.00 177.02
  Q 122.01 177.21 122.18 177.28
  Q 122.31 177.32 122.38 177.44
  Q 122.52 177.69 122.50 177.48
  Q 122.43 176.59 122.70 176.03
  Z"
/>
<path fill="#ff5e66" d="
  M 86.80 179.99
  L 63.07 203.73
  A 0.95 0.94 37.3 0 1 61.93 203.88
  L 29.97 185.54
  Q 28.33 184.60 28.33 182.71
  L 28.37 146.11
  Q 30.28 144.70 31.96 147.42
  Q 32.20 147.82 32.63 148.03
  C 35.83 149.59 38.68 151.44 41.98 153.04
  Q 43.45 153.75 45.14 155.01
  Q 47.04 156.43 51.11 158.06
  A 1.87 1.83 -7.0 0 1 51.87 158.64
  C 52.83 159.90 54.21 159.94 55.30 160.66
  Q 58.58 162.82 63.25 165.25
  Q 65.87 166.61 69.24 168.71
  Q 71.56 170.16 75.25 172.11
  Q 81.55 175.42 86.80 179.99
  Z"
/>
<path fill="#ff4b56" d="
  M 224.53 155.79
  L 224.50 175.60
  Q 223.48 176.00 222.76 176.73
  Q 222.43 177.06 222.00 176.89
  C 219.26 175.75 215.42 176.53 212.00 176.51
  Q 198.00 176.43 184.00 176.27
  Q 176.63 176.18 169.25 176.42
  Q 166.34 176.52 164.73 177.01
  Q 164.43 177.10 164.16 176.94
  Q 163.98 176.84 163.75 176.88
  Q 163.33 176.97 163.37 177.51
  L 162.03 176.12
  A 0.79 0.79 0.0 0 0 160.90 176.11
  L 130.78 206.23
  Q 130.26 206.74 130.26 206.02
  L 130.32 155.46
  L 209.73 155.37
  Q 209.88 155.37 209.98 155.47
  Q 210.07 155.56 210.18 155.62
  Q 210.25 155.65 210.34 155.64
  Q 216.56 154.98 222.71 156.14
  Q 223.23 156.23 223.37 155.72
  Q 223.43 155.53 223.87 155.49
  Q 224.08 155.47 224.21 155.63
  Q 224.35 155.82 224.53 155.79
  Z"
/>
<path fill="#ff5e66" d="
  M 224.50 175.60
  L 224.49 183.65
  A 1.53 1.53 0.0 0 1 223.72 184.98
  L 190.88 203.89
  A 1.05 1.05 0.0 0 1 189.62 203.73
  L 163.37 177.51
  Q 163.33 176.97 163.75 176.88
  Q 163.98 176.84 164.16 176.94
  Q 164.43 177.10 164.73 177.01
  Q 166.34 176.52 169.25 176.42
  Q 176.63 176.18 184.00 176.27
  Q 198.00 176.43 212.00 176.51
  C 215.42 176.53 219.26 175.75 222.00 176.89
  Q 222.43 177.06 222.76 176.73
  Q 223.48 176.00 224.50 175.60
  Z"
/>
</svg>
